{"asset":{"generator":"Khronos glTF Blender I/O v1.7.33","version":"2.0"},"scene":0,"scenes":[{"name":"Scene","nodes":[0]}],"nodes":[{"mesh":0,"name":"Beacon.vox-3","rotation":[0.70606529712677,0.004972299560904503,-0.008558501489460468,0.7080775499343872]}],"animations":[{"channels":[{"sampler":0,"target":{"node":0,"path":"translation"}},{"sampler":1,"target":{"node":0,"path":"rotation"}},{"sampler":2,"target":{"node":0,"path":"scale"}}],"name":"Beacon.vox-3Action","samplers":[{"input":16,"interpolation":"LINEAR","output":17},{"input":18,"interpolation":"LINEAR","output":19},{"input":16,"interpolation":"LINEAR","output":20}]}],"materials":[{"doubleSided":true,"name":"palette.003","pbrMetallicRoughness":{"baseColorTexture":{"index":0},"metallicFactor":0}},{"doubleSided":true,"name":"palette","pbrMetallicRoughness":{"baseColorTexture":{"index":1},"metallicFactor":0}},{"doubleSided":true,"name":"palette.001","pbrMetallicRoughness":{"baseColorTexture":{"index":2},"metallicFactor":0}},{"doubleSided":true,"name":"palette.002","pbrMetallicRoughness":{"baseColorTexture":{"index":3},"metallicFactor":0}}],"meshes":[{"name":"Beacon.vox-3","primitives":[{"attributes":{"POSITION":0,"NORMAL":1,"TEXCOORD_0":2},"indices":3,"material":0},{"attributes":{"POSITION":4,"NORMAL":5,"TEXCOORD_0":6},"indices":7,"material":1},{"attributes":{"POSITION":8,"NORMAL":9,"TEXCOORD_0":10},"indices":11,"material":2},{"attributes":{"POSITION":12,"NORMAL":13,"TEXCOORD_0":14},"indices":15,"material":3}]}],"textures":[{"sampler":0,"source":0},{"sampler":0,"source":1},{"sampler":0,"source":2},{"sampler":0,"source":3}],"images":[{"mimeType":"image/png","name":"Beacon.vox-3","uri":"data:application/octet-stream;base64,"},{"mimeType":"image/png","name":"Beacon.vox-0","uri":"data:application/octet-stream;base64,"},{"mimeType":"image/png","name":"Beacon.vox-1","uri":"data:application/octet-stream;base64,"},{"mimeType":"image/png","name":"Beacon.vox-2","uri":"data:application/octet-stream;base64,"}],"accessors":[{"bufferView":0,"componentType":5126,"count":1726,"max":[2.4000000953674316,2.4000000953674316,-66.19999694824219],"min":[-2.4000000953674316,-2.4000000953674316,-91.69999694824219],"type":"VEC3"},{"bufferView":1,"componentType":5126,"count":1726,"type":"VEC3"},{"bufferView":2,"componentType":5126,"count":1726,"type":"VEC2"},{"bufferView":3,"componentType":5123,"count":3060,"type":"SCALAR"},{"bufferView":4,"componentType":5126,"count":426,"max":[2.5,2.5,-44.70000076293945],"min":[-2.5,-2.5,-66.19999694824219],"type":"VEC3"},{"bufferView":5,"componentType":5126,"count":426,"type":"VEC3"},{"bufferView":6,"componentType":5126,"count":426,"type":"VEC2"},{"bufferView":7,"componentType":5123,"count":774,"type":"SCALAR"},{"bufferView":8,"componentType":5126,"count":2769,"max":[9.300000190734863,7.400000095367432,0.09999980032444],"min":[-9.199999809265137,-7.400000095367432,-20.100000381469727],"type":"VEC3"},{"bufferView":9,"componentType":5126,"count":2769,"type":"VEC3"},{"bufferView":10,"componentType":5126,"count":2769,"type":"VEC2"},{"bufferView":11,"componentType":5123,"count":5406,"type":"SCALAR"},{"bufferView":12,"componentType":5126,"count":1469,"max":[4.5,3.4000000953674316,-19.200000762939453],"min":[-3.4000000953674316,-3.4000000953674316,-44.70000076293945],"type":"VEC3"},{"bufferView":13,"componentType":5126,"count":1469,"type":"VEC3"},{"bufferView":14,"componentType":5126,"count":1469,"type":"VEC2"},{"bufferView":15,"componentType":5123,"count":2826,"type":"SCALAR"},{"bufferView":16,"componentType":5126,"count":2,"max":[10.416666666666666],"min":[0.041666666666666664],"type":"SCALAR"},{"bufferView":17,"componentType":5126,"count":2,"type":"VEC3"},{"bufferView":18,"componentType":5126,"count":250,"max":[10.416666666666666],"min":[0.041666666666666664],"type":"SCALAR"},{"bufferView":19,"componentType":5126,"count":250,"type":"VEC4"},{"bufferView":20,"componentType":5126,"count":2,"type":"VEC3"}],"bufferViews":[{"buffer":0,"byteLength":20712,"byteOffset":0},{"buffer":0,"byteLength":20712,"byteOffset":20712},{"buffer":0,"byteLength":13808,"byteOffset":41424},{"buffer":0,"byteLength":6120,"byteOffset":55232},{"buffer":0,"byteLength":5112,"byteOffset":61352},{"buffer":0,"byteLength":5112,"byteOffset":66464},{"buffer":0,"byteLength":3408,"byteOffset":71576},{"buffer":0,"byteLength":1548,"byteOffset":74984},{"buffer":0,"byteLength":33228,"byteOffset":76532},{"buffer":0,"byteLength":33228,"byteOffset":109760},{"buffer":0,"byteLength":22152,"byteOffset":142988},{"buffer":0,"byteLength":10812,"byteOffset":165140},{"buffer":0,"byteLength":17628,"byteOffset":175952},{"buffer":0,"byteLength":17628,"byteOffset":193580},{"buffer":0,"byteLength":11752,"byteOffset":211208},{"buffer":0,"byteLength":5652,"byteOffset":222960},{"buffer":0,"byteLength":8,"byteOffset":228612},{"buffer":0,"byteLength":24,"byteOffset":228620},{"buffer":0,"byteLength":1000,"byteOffset":228644},{"buffer":0,"byteLength":4000,"byteOffset":229644},{"buffer":0,"byteLength":24,"byteOffset":233644}],"samplers":[{"magFilter":9729,"minFilter":9987}],"buffers":[{"byteLength":233668,"uri":"data:application/octet-stream;base64,"}]}