{
    "asset" : {
        "generator" : "Khronos glTF Blender I/O v1.7.33",
        "version" : "2.0"
    },
    "scene" : 0,
    "scenes" : [
        {
            "name" : "Scene",
            "nodes" : [
                0,
                1,
                2,
                3
            ]
        }
    ],
    "nodes" : [
        {
            "mesh" : 0,
            "name" : "Beacon-0",
            "rotation" : [
                0.7071068286895752,
                0,
                0,
                0.7071067094802856
            ]
        },
        {
            "mesh" : 1,
            "name" : "Beacon-1",
            "rotation" : [
                0.7071068286895752,
                0,
                0,
                0.7071067094802856
            ]
        },
        {
            "mesh" : 2,
            "name" : "Beacon-2",
            "rotation" : [
                0.7071068286895752,
                0,
                0,
                0.7071067094802856
            ]
        },
        {
            "mesh" : 3,
            "name" : "Beacon-3",
            "rotation" : [
                0.7071068286895752,
                0,
                0,
                0.7071067094802856
            ]
        }
    ],
    "materials" : [
        {
            "doubleSided" : true,
            "name" : "palette",
            "pbrMetallicRoughness" : {
                "baseColorTexture" : {
                    "index" : 0
                },
                "metallicFactor" : 0
            }
        },
        {
            "doubleSided" : true,
            "name" : "palette.001",
            "pbrMetallicRoughness" : {
                "baseColorTexture" : {
                    "index" : 1
                },
                "metallicFactor" : 0
            }
        },
        {
            "doubleSided" : true,
            "name" : "palette.002",
            "pbrMetallicRoughness" : {
                "baseColorTexture" : {
                    "index" : 2
                },
                "metallicFactor" : 0
            }
        },
        {
            "doubleSided" : true,
            "name" : "palette.003",
            "pbrMetallicRoughness" : {
                "baseColorTexture" : {
                    "index" : 3
                },
                "metallicFactor" : 0
            }
        }
    ],
    "meshes" : [
        {
            "name" : "Beacon-0",
            "primitives" : [
                {
                    "attributes" : {
                        "POSITION" : 0,
                        "NORMAL" : 1,
                        "TEXCOORD_0" : 2
                    },
                    "indices" : 3,
                    "material" : 0
                }
            ]
        },
        {
            "name" : "Beacon-1",
            "primitives" : [
                {
                    "attributes" : {
                        "POSITION" : 4,
                        "NORMAL" : 5,
                        "TEXCOORD_0" : 6
                    },
                    "indices" : 7,
                    "material" : 1
                }
            ]
        },
        {
            "name" : "Beacon-2",
            "primitives" : [
                {
                    "attributes" : {
                        "POSITION" : 8,
                        "NORMAL" : 9,
                        "TEXCOORD_0" : 10
                    },
                    "indices" : 11,
                    "material" : 2
                }
            ]
        },
        {
            "name" : "Beacon-3",
            "primitives" : [
                {
                    "attributes" : {
                        "POSITION" : 12,
                        "NORMAL" : 13,
                        "TEXCOORD_0" : 14
                    },
                    "indices" : 15,
                    "material" : 3
                }
            ]
        }
    ],
    "textures" : [
        {
            "sampler" : 0,
            "source" : 0
        },
        {
            "sampler" : 0,
            "source" : 1
        },
        {
            "sampler" : 0,
            "source" : 2
        },
        {
            "sampler" : 0,
            "source" : 3
        }
    ],
    "images" : [
        {
            "bufferView" : 4,
            "mimeType" : "image/png",
            "name" : "Beacon-0"
        },
        {
            "bufferView" : 9,
            "mimeType" : "image/png",
            "name" : "Beacon-1"
        },
        {
            "bufferView" : 14,
            "mimeType" : "image/png",
            "name" : "Beacon-2"
        },
        {
            "bufferView" : 19,
            "mimeType" : "image/png",
            "name" : "Beacon-3"
        }
    ],
    "accessors" : [
        {
            "bufferView" : 0,
            "componentType" : 5126,
            "count" : 48,
            "max" : [
                2.5,
                2.5,
                -44.70000076293945
            ],
            "min" : [
                -2.5,
                -2.5,
                -66.19999694824219
            ],
            "type" : "VEC3"
        },
        {
            "bufferView" : 1,
            "componentType" : 5126,
            "count" : 48,
            "type" : "VEC3"
        },
        {
            "bufferView" : 2,
            "componentType" : 5126,
            "count" : 48,
            "type" : "VEC2"
        },
        {
            "bufferView" : 3,
            "componentType" : 5123,
            "count" : 84,
            "type" : "SCALAR"
        },
        {
            "bufferView" : 5,
            "componentType" : 5126,
            "count" : 2338,
            "max" : [
                9.300000190734863,
                7.400000095367432,
                2.9000000953674316
            ],
            "min" : [
                -9.199999809265137,
                -7.400000095367432,
                -20.100000381469727
            ],
            "type" : "VEC3"
        },
        {
            "bufferView" : 6,
            "componentType" : 5126,
            "count" : 2338,
            "type" : "VEC3"
        },
        {
            "bufferView" : 7,
            "componentType" : 5126,
            "count" : 2338,
            "type" : "VEC2"
        },
        {
            "bufferView" : 8,
            "componentType" : 5123,
            "count" : 4908,
            "type" : "SCALAR"
        },
        {
            "bufferView" : 10,
            "componentType" : 5126,
            "count" : 1226,
            "max" : [
                4.5,
                3.4000000953674316,
                -19.200000762939453
            ],
            "min" : [
                -3.4000000953674316,
                -3.4000000953674316,
                -44.70000076293945
            ],
            "type" : "VEC3"
        },
        {
            "bufferView" : 11,
            "componentType" : 5126,
            "count" : 1226,
            "type" : "VEC3"
        },
        {
            "bufferView" : 12,
            "componentType" : 5126,
            "count" : 1226,
            "type" : "VEC2"
        },
        {
            "bufferView" : 13,
            "componentType" : 5123,
            "count" : 2364,
            "type" : "SCALAR"
        },
        {
            "bufferView" : 15,
            "componentType" : 5126,
            "count" : 576,
            "max" : [
                2.4000000953674316,
                2.4000000953674316,
                -66.19999694824219
            ],
            "min" : [
                -2.4000000953674316,
                -2.4000000953674316,
                -91.69999694824219
            ],
            "type" : "VEC3"
        },
        {
            "bufferView" : 16,
            "componentType" : 5126,
            "count" : 576,
            "type" : "VEC3"
        },
        {
            "bufferView" : 17,
            "componentType" : 5126,
            "count" : 576,
            "type" : "VEC2"
        },
        {
            "bufferView" : 18,
            "componentType" : 5123,
            "count" : 1140,
            "type" : "SCALAR"
        }
    ],
    "bufferViews" : [
        {
            "buffer" : 0,
            "byteLength" : 576,
            "byteOffset" : 0
        },
        {
            "buffer" : 0,
            "byteLength" : 576,
            "byteOffset" : 576
        },
        {
            "buffer" : 0,
            "byteLength" : 384,
            "byteOffset" : 1152
        },
        {
            "buffer" : 0,
            "byteLength" : 168,
            "byteOffset" : 1536
        },
        {
            "buffer" : 0,
            "byteLength" : 1221,
            "byteOffset" : 1704
        },
        {
            "buffer" : 0,
            "byteLength" : 28056,
            "byteOffset" : 2928
        },
        {
            "buffer" : 0,
            "byteLength" : 28056,
            "byteOffset" : 30984
        },
        {
            "buffer" : 0,
            "byteLength" : 18704,
            "byteOffset" : 59040
        },
        {
            "buffer" : 0,
            "byteLength" : 9816,
            "byteOffset" : 77744
        },
        {
            "buffer" : 0,
            "byteLength" : 1221,
            "byteOffset" : 87560
        },
        {
            "buffer" : 0,
            "byteLength" : 14712,
            "byteOffset" : 88784
        },
        {
            "buffer" : 0,
            "byteLength" : 14712,
            "byteOffset" : 103496
        },
        {
            "buffer" : 0,
            "byteLength" : 9808,
            "byteOffset" : 118208
        },
        {
            "buffer" : 0,
            "byteLength" : 4728,
            "byteOffset" : 128016
        },
        {
            "buffer" : 0,
            "byteLength" : 1221,
            "byteOffset" : 132744
        },
        {
            "buffer" : 0,
            "byteLength" : 6912,
            "byteOffset" : 133968
        },
        {
            "buffer" : 0,
            "byteLength" : 6912,
            "byteOffset" : 140880
        },
        {
            "buffer" : 0,
            "byteLength" : 4608,
            "byteOffset" : 147792
        },
        {
            "buffer" : 0,
            "byteLength" : 2280,
            "byteOffset" : 152400
        },
        {
            "buffer" : 0,
            "byteLength" : 1221,
            "byteOffset" : 154680
        }
    ],
    "samplers" : [
        {
            "magFilter" : 9729,
            "minFilter" : 9987
        }
    ],
    "buffers" : [
        {
            "byteLength" : 155904,
            "uri" : "data:application/octet-stream;base64,"
        }
    ]
}
